<svg width="96" height="96" viewBox="0 0 96 96" fill="none" xmlns="http://www.w3.org/2000/svg">
<path d="M78.0001 42V53.9681C78.0002 56.0921 77.2644 58.1505 75.9178 59.7931C74.5713 61.4356 72.6972 62.5609 70.6145 62.9775L64.667 64.1662L66.5495 60.3994C67.1752 59.1504 67.5007 57.7726 67.5001 56.3756V39.6244C67.5007 38.2274 67.1752 36.8496 66.5495 35.6006L64.667 31.8337L70.6145 33.0225C72.6924 33.4368 74.563 34.5572 75.9092 36.1934C77.2553 37.8297 77.994 39.8812 78.0001 42Z" fill="#1976D2"/>
<path d="M67.5 55.5L78 47.1V45.9L67.5 54.3V55.5Z" fill="#2196F3"/>
<path d="M78 42.0001L67.5 50.4001V46.8001L77.4338 38.8519C77.8054 39.86 77.9971 40.9256 78 42.0001Z" fill="#2196F3"/>
<path d="M47.8575 57.5006C47.9029 57.8176 47.8853 58.1403 47.8058 58.4505C47.7264 58.7606 47.5866 59.0521 47.3944 59.3081L43.5 64.5H42L39.1425 62.7862C37.7265 61.9363 36.5546 60.7343 35.7411 59.2971C34.9275 57.8599 34.5 56.2365 34.5 54.585V41.415C34.5 39.7635 34.9275 38.1401 35.7411 36.7029C36.5546 35.2657 37.7265 34.0637 39.1425 33.2137L42 31.5H43.5L47.3944 36.6919C47.5866 36.9479 47.7264 37.2394 47.8058 37.5495C47.8853 37.8597 47.9029 38.1824 47.8575 38.4994L47.5594 40.5881L47.4394 41.4244C47.25 42.7481 47.1188 44.0762 47.0456 45.4087C46.8748 48.4699 47.0067 51.5404 47.4394 54.5756L47.8575 57.5006Z" fill="#1976D2"/>
<path d="M47.5594 40.5881L47.4394 41.4244C47.25 42.7481 47.1188 44.0763 47.0456 45.4088L34.5 53.25V48.75L47.5594 40.5881Z" fill="#2196F3"/>
<path d="M16.5 60L31.5 64.5L28.5 66H13.5L4.5 57V54L16.5 60Z" fill="#F9A825"/>
<path d="M16.5 36L4.5 42V39L13.5 30H28.5L31.5 31.5H33L16.5 36Z" fill="#F9A825"/>
<path d="M70.6144 62.9775C72.6971 62.5609 74.5712 61.4356 75.9177 59.7931C77.2642 58.1505 78.0001 56.0921 78 53.9681V42.0319C78.0001 39.9079 77.2642 37.8495 75.9177 36.2069C74.5712 34.5644 72.6971 33.4391 70.6144 33.0225L64.6669 31.8337L63 31.5L66 30H79.5L91.5 36V60L79.5 66H66L63 64.5L64.6669 64.1663L70.6144 62.9775Z" fill="#C62828"/>
<path d="M47.4394 41.4244L47.8575 38.4994C47.9029 38.1824 47.8853 37.8597 47.8058 37.5495C47.7264 37.2394 47.5866 36.9479 47.3944 36.6919L43.5 31.5H63L64.6669 31.8337L66.5494 35.6006C67.1751 36.8496 67.5006 38.2274 67.5 39.6244V56.3756C67.5006 57.7726 67.1751 59.1504 66.5494 60.3994L64.6669 64.1663L63 64.5H43.5L47.3944 59.3081C47.5866 59.0521 47.7264 58.7606 47.8058 58.4505C47.8853 58.1403 47.9029 57.8176 47.8575 57.5006L47.4394 54.5756C46.8169 50.214 46.8169 45.786 47.4394 41.4244Z" fill="#C62828"/>
<path d="M42 31.5L39.1425 33.2137C37.7265 34.0637 36.5546 35.2657 35.7411 36.7029C34.9275 38.1401 34.5 39.7635 34.5 41.415V54.585C34.5 56.2365 34.9275 57.8599 35.7411 59.2971C36.5546 60.7343 37.7265 61.9363 39.1425 62.7862L42 64.5H31.5L16.5 60L4.5 54V42L16.5 36L33 31.5H42Z" fill="#C62828"/>
<path d="M93 48H90V36.927L79.1458 31.5H66.3542L63.6709 32.8416C63.4626 32.9458 63.2329 33 63 33H31.5C31.2671 33 31.0374 32.9458 30.8291 32.8416L28.1458 31.5H14.1208L6 39.6212V48H3V39C2.99999 38.803 3.03879 38.608 3.11416 38.426C3.18954 38.244 3.30003 38.0786 3.43931 37.9393L12.4393 28.9393C12.5786 28.8 12.744 28.6895 12.926 28.6142C13.108 28.5388 13.303 28.5 13.5 28.5H28.5C28.7329 28.5 28.9626 28.5542 29.1709 28.6584L31.8542 30H62.6458L65.3291 28.6584C65.5374 28.5542 65.7671 28.5 66 28.5H79.5C79.7329 28.5 79.9626 28.5542 80.1709 28.6584L92.1709 34.6584C92.42 34.783 92.6295 34.9745 92.776 35.2115C92.9224 35.4484 93 35.7215 93 36V48Z" fill="#C62828"/>
<path d="M36 48H33V41.415C33.0054 39.5056 33.5024 37.6297 34.443 35.9681C35.3836 34.3064 36.7362 32.9149 38.3706 31.9275L41.2286 30.2134L42.7714 32.7863L39.9139 34.5C38.7228 35.2197 37.7371 36.234 37.0516 37.4451C36.3661 38.6562 36.0039 40.0234 36 41.415V48Z" fill="#C62828"/>
<path d="M79.4999 48H76.4999V42.0318C76.4959 40.2558 75.8787 38.5357 74.7526 37.1623C73.6266 35.7889 72.0609 34.8465 70.3201 34.4943L62.7056 32.9717L63.2943 30.0302L70.9085 31.5525C73.3286 32.0421 75.5053 33.3524 77.0708 35.2619C78.6362 37.1713 79.4943 39.5627 79.4999 42.0318V48Z" fill="#C62828"/>
<path d="M5.17085 43.3416L3.8291 40.6584L15 35.073V33H18V36C18 36.2785 17.9224 36.5516 17.776 36.7885C17.6295 37.0255 17.42 37.217 17.1709 37.3416L5.17085 43.3416Z" fill="#C62828"/>
<path d="M79.5 67.5H66C65.7671 67.5 65.5374 67.4458 65.3291 67.3416L62.6458 66H31.8542L29.1709 67.3416C28.9626 67.4458 28.7329 67.5 28.5 67.5H13.5C13.303 67.5 13.108 67.4612 12.926 67.3858C12.744 67.3105 12.5786 67.2 12.4393 67.0607L3.43931 58.0607C3.30003 57.9214 3.18954 57.756 3.11416 57.574C3.03879 57.392 2.99999 57.197 3 57V48H6V56.3788L14.1212 64.5H28.1462L30.8295 63.1584C31.0377 63.0543 31.2672 63 31.5 63H63C63.2329 63 63.4626 63.0542 63.6709 63.1584L66.3542 64.5H79.1458L90 59.073V48H93V60C93 60.2785 92.9224 60.5516 92.776 60.7885C92.6295 61.0255 92.42 61.217 92.1709 61.3416L80.1709 67.3416C79.9626 67.4458 79.7329 67.5 79.5 67.5Z" fill="#C62828"/>
<path d="M41.2286 65.7864L38.3711 64.0727C36.7367 63.0854 35.384 61.6938 34.4433 60.0321C33.5026 58.3704 33.0055 56.4945 33 54.585V48H36V54.585C36.004 55.9767 36.3662 57.3439 37.0518 58.555C37.7374 59.7662 38.7232 60.7804 39.9144 61.5L42.7714 63.2136L41.2286 65.7864Z" fill="#C62828"/>
<path d="M63.2943 65.9707L62.7056 63.0293L70.3203 61.5066C72.0612 61.1544 73.627 60.2118 74.753 58.8382C75.879 57.4646 76.4961 55.7443 76.4999 53.9681V48H79.4999V53.9681C79.4947 56.4375 78.6369 58.8294 77.0714 60.7392C75.506 62.649 73.329 63.9596 70.9087 64.4494L63.2943 65.9707Z" fill="#C62828"/>
<path d="M18 63H15V60.927L3.8291 55.3416L5.17085 52.6584L17.1709 58.6584C17.42 58.783 17.6295 58.9745 17.776 59.2115C17.9224 59.4484 18 59.7215 18 60V63Z" fill="#C62828"/>
<path d="M44.6998 65.4L42.2998 63.6L46.194 58.4081C46.3425 58.2094 46.4066 57.9601 46.3723 57.7144L45.9542 54.7875C45.3115 50.2853 45.3115 45.7147 45.9542 41.2125L46.3723 38.2875C46.407 38.0413 46.343 37.7914 46.1942 37.5922L42.2998 32.4L44.6998 30.6L48.5942 35.7919C49.2187 36.6289 49.4876 37.6786 49.3423 38.7127L48.9244 41.6366C48.3217 45.8575 48.3217 50.1426 48.9244 54.3635L49.3425 57.2885C49.4875 58.3224 49.2185 59.3716 48.5942 60.2083L44.6998 65.4Z" fill="#C62828"/>
<path d="M16.1069 34.5605L32.611 30.0626L33.4 32.9576L16.8959 37.4555L16.1069 34.5605Z" fill="#C62828"/>
<path d="M16.0708 61.4138L16.9318 58.5398L31.9344 63.0343L31.0734 65.9083L16.0708 61.4138Z" fill="#C62828"/>
<path d="M65.8417 65.1707L63.1582 63.8293L65.2074 59.7289C65.7277 58.6876 65.9991 57.5397 66 56.3757V39.6244C65.9992 38.4611 65.7282 37.3139 65.2083 36.2732L63.1582 32.1707L65.8417 30.8293L67.8911 34.9302C68.6191 36.388 68.9987 37.9949 69 39.6244V56.3757C68.9986 58.0058 68.6187 59.6134 67.8901 61.0718L65.8417 65.1707Z" fill="#C62828"/>
<path d="M63 40.5H48C47.6022 40.5 47.2206 40.342 46.9393 40.0607C46.658 39.7794 46.5 39.3978 46.5 39C46.5 38.6022 46.658 38.2206 46.9393 37.9393C47.2206 37.658 47.6022 37.5 48 37.5H63C63.3978 37.5 63.7794 37.658 64.0607 37.9393C64.342 38.2206 64.5 38.6022 64.5 39C64.5 39.3978 64.342 39.7794 64.0607 40.0607C63.7794 40.342 63.3978 40.5 63 40.5Z" fill="#8E0000"/>
<path d="M63 58.5H48C47.6022 58.5 47.2206 58.342 46.9393 58.0607C46.658 57.7794 46.5 57.3978 46.5 57C46.5 56.6022 46.658 56.2206 46.9393 55.9393C47.2206 55.658 47.6022 55.5 48 55.5H63C63.3978 55.5 63.7794 55.658 64.0607 55.9393C64.342 56.2206 64.5 56.6022 64.5 57C64.5 57.3978 64.342 57.7794 64.0607 58.0607C63.7794 58.342 63.3978 58.5 63 58.5Z" fill="#8E0000"/>
<path d="M78 37.5H87V40.5H78V37.5Z" fill="#C62828"/>
<path d="M78 55.5H87V58.5H78V55.5Z" fill="#C62828"/>
<path d="M43.4986 33C43.2272 32.9998 42.9609 32.9259 42.7282 32.7862C42.4955 32.6466 42.305 32.4464 42.1771 32.207C42.0492 31.9677 41.9886 31.6981 42.0018 31.427C42.015 31.1559 42.1015 30.8935 42.2521 30.6677L45.2521 26.1677C45.4738 25.839 45.8166 25.6115 46.2055 25.5348C46.5945 25.4581 46.998 25.5385 47.3278 25.7585C47.6576 25.9784 47.887 26.3199 47.9658 26.7085C48.0445 27.097 47.9663 27.5009 47.7481 27.8319L44.7481 32.3319C44.6111 32.5377 44.4253 32.7064 44.2073 32.823C43.9893 32.9395 43.7458 33.0004 43.4986 33Z" fill="#8E0000"/>
<path d="M46.5015 70.5C46.2543 70.5004 46.0109 70.4395 45.7928 70.323C45.5748 70.2064 45.389 70.0377 45.252 69.8319L42.252 65.3319C42.1415 65.1681 42.0645 64.984 42.0253 64.7902C41.9862 64.5965 41.9857 64.3969 42.0239 64.203C42.0622 64.0091 42.1384 63.8246 42.2481 63.6603C42.3579 63.4959 42.499 63.3548 42.6635 63.2451C42.8279 63.1355 43.0124 63.0594 43.2064 63.0213C43.4003 62.9832 43.5999 62.9838 43.7936 63.0231C43.9873 63.0623 44.1714 63.1395 44.3352 63.2501C44.499 63.3608 44.6393 63.5027 44.748 63.6677L47.748 68.1677C47.8986 68.3935 47.9852 68.6559 47.9984 68.927C48.0116 69.1981 47.951 69.4677 47.8231 69.707C47.6951 69.9464 47.5047 70.1466 47.2719 70.2862C47.0392 70.4259 46.7729 70.4998 46.5015 70.5Z" fill="#8E0000"/>
<path d="M20.5608 86.5607L18.4395 84.4393L22.5001 80.3788V70.5H25.5001V81C25.5001 81.197 25.4614 81.392 25.386 81.574C25.3106 81.756 25.2001 81.9214 25.0608 82.0607L20.5608 86.5607Z" fill="#373737"/>
<path d="M39.6 79.2L33.6 74.7C33.4137 74.5603 33.2625 74.3791 33.1584 74.1708C33.0542 73.9625 33 73.7329 33 73.5V69H36V72.75L41.4 76.8L39.6 79.2Z" fill="#373737"/>
<path d="M80.4375 91.1713L78.5625 88.8287L85.5 83.2787V67.5H88.5V84C88.5001 84.2249 88.4495 84.447 88.3522 84.6497C88.2548 84.8525 88.1131 85.0307 87.9375 85.1713L80.4375 91.1713Z" fill="#373737"/>
<path d="M3 84H16.5V87H3V84Z" fill="#373737"/>
<path d="M3 90H16.5V93H3V90Z" fill="#373737"/>
<path d="M63 84H76.5V87H63V84Z" fill="#373737"/>
<path d="M73.5 28.5001H70.5V12.721L63.5625 7.17099L65.4375 4.82837L72.9375 10.8284C73.1131 10.969 73.2549 11.1473 73.3522 11.3501C73.4496 11.5529 73.5001 11.7751 73.5 12.0001V28.5001Z" fill="#373737"/>
<path d="M48 9H61.5V12H48V9Z" fill="#373737"/>
<path d="M48 3H61.5V6H48V3Z" fill="#373737"/>
<path d="M63 90H76.5V93H63V90Z" fill="#373737"/>
<path d="M15 27H12V22.5C12 22.2672 12.0542 22.0375 12.1584 21.8292C12.2625 21.6209 12.4137 21.4398 12.6 21.3L18.6 16.8L20.4 19.2L15 23.25V27Z" fill="#373737"/>
<path d="M30 12V19.5C28.0109 19.5 26.1032 18.7098 24.6967 17.3033C23.2902 15.8968 22.5 13.9891 22.5 12H30Z" fill="#008A52"/>
<path d="M51 76.5C52.5741 76.5 54.1083 76.9953 55.3853 77.9157C56.6623 78.8361 57.6173 80.135 58.1151 81.6283C58.6129 83.1216 58.6282 84.7337 58.1589 86.2363C57.6895 87.7388 56.7593 89.0555 55.5 90L51 84V76.5Z" fill="#008A52"/>
<path d="M34.5 6L30 12H22.5C22.5 10.6072 22.8879 9.24184 23.6201 8.05702C24.3524 6.8722 25.4001 5.9147 26.6459 5.2918C27.8917 4.6689 29.2863 4.40522 30.6735 4.53031C32.0608 4.65539 33.3857 5.1643 34.5 6Z" fill="#FBC02D"/>
<path d="M51 76.5V84H43.5C43.5 82.0109 44.2902 80.1032 45.6967 78.6967C47.1032 77.2902 49.0109 76.5 51 76.5Z" fill="#FBC02D"/>
<path d="M51 84L55.5 90C54.3857 90.8357 53.0608 91.3446 51.6735 91.4697C50.2863 91.5948 48.8917 91.3311 47.6459 90.7082C46.4001 90.0853 45.3524 89.1278 44.6201 87.943C43.8879 86.7582 43.5 85.3928 43.5 84H51Z" fill="#1E88E5"/>
<path d="M34.5 6C35.7593 6.94447 36.6895 8.26123 37.1589 9.76374C37.6282 11.2663 37.6129 12.8784 37.1151 14.3717C36.6173 15.865 35.6623 17.1639 34.3853 18.0843C33.1083 19.0047 31.5741 19.5 30 19.5V12L34.5 6Z" fill="#1E88E5"/>
<path d="M51.0001 93C48.863 92.9998 46.7958 92.2391 45.1683 90.8542C43.5408 89.4693 42.4592 87.5504 42.1171 85.441C41.775 83.3315 42.1946 81.1691 43.3009 79.3408C44.4072 77.5124 46.128 76.1374 48.1554 75.4617C50.1828 74.786 52.3844 74.8538 54.3664 75.6529C56.3484 76.452 57.9814 77.9303 58.9731 79.8233C59.9649 81.7162 60.2507 83.9003 59.7794 85.9847C59.3082 88.0691 58.1106 89.9178 56.401 91.2C54.8425 92.3679 52.9476 92.9995 51.0001 93ZM51.0001 78C49.8134 78 48.6533 78.3519 47.6666 79.0112C46.6799 79.6705 45.9109 80.6075 45.4568 81.7039C45.0027 82.8003 44.8838 84.0067 45.1153 85.1705C45.3469 86.3344 45.9183 87.4035 46.7574 88.2426C47.5965 89.0818 48.6656 89.6532 49.8295 89.8847C50.9934 90.1162 52.1998 89.9974 53.2962 89.5433C54.3925 89.0892 55.3296 88.3201 55.9889 87.3334C56.6482 86.3467 57.0001 85.1867 57.0001 84C56.9983 82.4093 56.3656 80.8842 55.2407 79.7593C54.1159 78.6345 52.5908 78.0018 51.0001 78Z" fill="#373737"/>
<path d="M51 85.5H43.5V82.5H49.5V76.5H52.5V84C52.5 84.3978 52.342 84.7794 52.0607 85.0607C51.7794 85.342 51.3978 85.5 51 85.5Z" fill="#373737"/>
<path d="M49.7998 84.9L52.1998 83.1L56.6998 89.1L54.2998 90.9L49.7998 84.9Z" fill="#373737"/>
<path d="M30 21C28.22 21 26.4799 20.4722 24.9999 19.4832C23.5198 18.4943 22.3663 17.0887 21.6851 15.4442C21.0039 13.7996 20.8257 11.99 21.1729 10.2442C21.5202 8.49836 22.3774 6.89472 23.636 5.63604C24.8947 4.37737 26.4984 3.5202 28.2442 3.17294C29.99 2.82567 31.7996 3.0039 33.4442 3.68509C35.0887 4.36628 36.4943 5.51983 37.4832 6.99987C38.4722 8.47991 39 10.22 39 12C38.9973 14.3861 38.0483 16.6738 36.361 18.361C34.6738 20.0483 32.3861 20.9973 30 21ZM30 6C28.5753 6 27.1971 6.50697 26.112 7.43018C25.0269 8.35339 24.3057 9.63261 24.0775 11.0389C23.8493 12.4452 24.1289 13.8868 24.8664 15.1058C25.6039 16.3248 26.751 17.2416 28.1026 17.6921C29.4542 18.1426 30.922 18.0975 32.2434 17.5648C33.5648 17.0321 34.6535 16.0466 35.3147 14.7846C35.9759 13.5227 36.1665 12.0666 35.8523 10.677C35.5382 9.28733 34.7398 8.05483 33.6 7.2C32.5612 6.42151 31.2981 6.00049 30 6Z" fill="#373737"/>
<path d="M31.5 19.5H28.5V13.5H22.5V10.5H30C30.3978 10.5 30.7794 10.658 31.0607 10.9393C31.342 11.2206 31.5 11.6022 31.5 12V19.5Z" fill="#373737"/>
<path d="M28.8008 11.1013L33.3008 5.10132L35.7008 6.90132L31.2008 12.9013L28.8008 11.1013Z" fill="#373737"/>
</svg>
