<svg width="96" height="96" viewBox="0 0 96 96" fill="none" xmlns="http://www.w3.org/2000/svg">
<path d="M22.5 55.5H75L76.5 55.875L80.04 56.76C82.0281 57.2566 83.7932 58.4037 85.0543 60.0189C86.3155 61.634 87.0003 63.6245 87 65.6738V73.5H9V65.6738C8.99966 63.6245 9.68453 61.634 10.9457 60.0189C12.2068 58.4037 13.9719 57.2566 15.96 56.76L19.5 55.875L21 55.5H22.5Z" fill="#C62828"/>
<path d="M76.5 51V55.5H85.5C85.8978 55.5 86.2794 55.342 86.5607 55.0607C86.842 54.7794 87 54.3978 87 54V51C87 50.6022 86.842 50.2206 86.5607 49.9393C86.2794 49.658 85.8978 49.5 85.5 49.5H78C77.6022 49.5 77.2206 49.658 76.9393 49.9393C76.658 50.2206 76.5 50.6022 76.5 51Z" fill="#D32F2F"/>
<path d="M85.5 57H76.5C76.1022 57 75.7206 56.842 75.4393 56.5607C75.158 56.2794 75 55.8978 75 55.5V51C75.0009 50.2046 75.3173 49.4421 75.8797 48.8797C76.4421 48.3173 77.2046 48.0009 78 48H85.5C86.2954 48.0009 87.0579 48.3173 87.6203 48.8797C88.1827 49.4421 88.4991 50.2046 88.5 51V54C88.4991 54.7954 88.1827 55.5579 87.6203 56.1203C87.0579 56.6827 86.2954 56.9991 85.5 57ZM78 54H85.5V51H78V54Z" fill="#C62828"/>
<path d="M85.5 57H75V51C75 50.6022 75.158 50.2206 75.4393 49.9393C75.7206 49.658 76.1022 49.5 76.5 49.5C76.8978 49.5 77.2794 49.658 77.5607 49.9393C77.842 50.2206 78 50.6022 78 51V54H85.5C85.8978 54 86.2794 54.158 86.5607 54.4393C86.842 54.7206 87 55.1022 87 55.5C87 55.8978 86.842 56.2794 86.5607 56.5607C86.2794 56.842 85.8978 57 85.5 57Z" fill="#8E0000"/>
<path d="M19.5 51V55.5H10.5C10.1022 55.5 9.72064 55.342 9.43934 55.0607C9.15804 54.7794 9 54.3978 9 54V51C9 50.6022 9.15804 50.2206 9.43934 49.9393C9.72064 49.658 10.1022 49.5 10.5 49.5H18C18.3978 49.5 18.7794 49.658 19.0607 49.9393C19.342 50.2206 19.5 50.6022 19.5 51Z" fill="#D32F2F"/>
<path d="M19.5 57H10.5C9.70464 56.9991 8.94213 56.6827 8.37972 56.1203C7.81732 55.5579 7.50094 54.7954 7.5 54V51C7.50094 50.2046 7.81732 49.4421 8.37972 48.8797C8.94213 48.3173 9.70464 48.0009 10.5 48H18C18.7954 48.0009 19.5579 48.3173 20.1203 48.8797C20.6827 49.4421 20.9991 50.2046 21 51V55.5C21 55.8978 20.842 56.2794 20.5607 56.5607C20.2794 56.842 19.8978 57 19.5 57ZM10.5 51V54H18V51H10.5Z" fill="#C62828"/>
<path d="M21 57H10.5C10.1022 57 9.72064 56.842 9.43934 56.5607C9.15804 56.2794 9 55.8978 9 55.5C9 55.1022 9.15804 54.7206 9.43934 54.4393C9.72064 54.158 10.1022 54 10.5 54H18V51C18 50.6022 18.158 50.2206 18.4393 49.9393C18.7206 49.658 19.1022 49.5 19.5 49.5C19.8978 49.5 20.2794 49.658 20.5607 49.9393C20.842 50.2206 21 50.6022 21 51V57Z" fill="#8E0000"/>
<path d="M69.2625 44.0231L75 55.5H21L26.7375 44.0231C27.2672 42.9645 28.0812 42.0742 29.0882 41.452C30.0953 40.8298 31.2556 40.5001 32.4394 40.5H63.5606C64.7444 40.5001 65.9047 40.8298 66.9118 41.452C67.9188 42.0742 68.7328 42.9645 69.2625 44.0231Z" fill="#1565C0"/>
<path d="M43.5 40.5L31.5 55.5H41.25L52.5 40.5H43.5Z" fill="#2196F3"/>
<path d="M57 40.5L46.5 55.5H49.5L60 40.5H57Z" fill="#2196F3"/>
<path d="M10.5 73.5H7.50001V65.6738C7.49718 63.2894 8.29301 60.9727 9.76051 59.0934C11.228 57.214 13.2827 55.8803 15.5966 55.305L19.9667 54.2125L25.3958 43.3529C26.0461 42.0419 27.0506 40.9392 28.2956 40.1699C29.5405 39.4006 30.976 38.9953 32.4394 39H48V42H32.4394C31.5334 41.9971 30.6448 42.2479 29.8741 42.7242C29.1034 43.2004 28.4815 43.883 28.0789 44.6946L22.3414 56.1707C22.2447 56.3643 22.1072 56.5347 21.9384 56.6701C21.7696 56.8055 21.5735 56.9028 21.3636 56.9552L16.3238 58.2152C14.6593 58.629 13.1813 59.5884 12.1257 60.9403C11.0702 62.2921 10.4978 63.9586 10.5 65.6738V73.5Z" fill="#C62828"/>
<path d="M80.0401 56.76L76.5001 55.875L75.0001 55.5H70.8189C57.3423 64.7038 42.0151 70.8475 25.9126 73.5H87.0001V65.6738C87.0004 63.6245 86.3156 61.634 85.0544 60.0189C83.7933 58.4037 82.0282 57.2566 80.0401 56.76Z" fill="#B71C1C"/>
<path d="M39.02 55.7466L37.781 48.3133C37.7666 48.2257 37.7215 48.1461 37.6538 48.0886C37.586 48.0312 37.5001 47.9998 37.4113 48H33.0883C32.9994 47.9998 32.9134 48.0312 32.8456 48.0886C32.7779 48.146 32.7327 48.2257 32.7183 48.3133L31.4795 55.7466L28.52 55.2534L29.759 47.8202C29.8884 47.0312 30.2945 46.3141 30.9046 45.7973C31.5146 45.2805 32.2888 44.9979 33.0883 45H37.4113C38.2108 44.9979 38.9849 45.2805 39.595 45.7973C40.205 46.3141 40.6111 47.0312 40.7405 47.8202L41.9795 55.2534L39.02 55.7466Z" fill="#373737"/>
<path d="M64.52 55.7466L63.281 48.3133C63.2666 48.2257 63.2215 48.1461 63.1538 48.0886C63.086 48.0312 63.0001 47.9998 62.9113 48H58.5883C58.4994 47.9998 58.4134 48.0312 58.3456 48.0886C58.2779 48.146 58.2327 48.2257 58.2183 48.3133L56.9795 55.7466L54.02 55.2534L55.259 47.8202C55.3884 47.0312 55.7945 46.3141 56.4046 45.7973C57.0146 45.2805 57.7888 44.9979 58.5883 45H62.9113C63.7108 44.9979 64.4849 45.2805 65.095 45.7973C65.705 46.3141 66.1111 47.0312 66.2405 47.8202L67.4795 55.2534L64.52 55.7466Z" fill="#373737"/>
<path d="M22.5938 85.5V85.5938L22.5 89.8125C22.5 90.2601 22.3222 90.6893 22.0057 91.0057C21.6893 91.3222 21.2601 91.5 20.8125 91.5H10.6875C10.2399 91.5 9.81073 91.3222 9.49426 91.0057C9.17779 90.6893 9 90.2601 9 89.8125V79.5H10.5L13.5 85.5H22.5938Z" fill="#424242"/>
<path d="M75.1875 91.5C74.7399 91.5 74.3107 91.3222 73.9943 91.0057C73.6778 90.6893 73.5 90.2601 73.5 89.8125L73.5938 85.5938V85.5H82.5L85.5 79.5H87V89.8125C87 90.2601 86.8222 90.6893 86.5057 91.0057C86.1893 91.3222 85.7601 91.5 85.3125 91.5H75.1875Z" fill="#424242"/>
<path d="M76.5 79.5H85.5L82.5 85.5H73.5938H22.5938H13.5L10.5 79.5H19.5H22.5H25.5H70.5H73.5H76.5Z" fill="#C62828"/>
<path d="M18 66C20.4853 66 22.5 63.9853 22.5 61.5C22.5 59.0147 20.4853 57 18 57C15.5147 57 13.5 59.0147 13.5 61.5C13.5 63.9853 15.5147 66 18 66Z" fill="#FBC02D"/>
<path d="M79.5 66C81.9853 66 84 63.9853 84 61.5C84 59.0147 81.9853 57 79.5 57C77.0147 57 75 59.0147 75 61.5C75 63.9853 77.0147 66 79.5 66Z" fill="#FBC02D"/>
<path d="M22.5 73.5V79.5H19.5H10.5H9V73.5H22.5Z" fill="#FBC02D"/>
<path d="M87 73.5V79.5H85.5H76.5H73.5V73.5H87Z" fill="#FBC02D"/>
<path d="M73.5 73.5V79.5H70.5H25.5H22.5V73.5H73.5Z" fill="#616161"/>
<path d="M87 81H85.5V75H10.5V81H9C8.60218 81 8.22064 80.842 7.93934 80.5607C7.65804 80.2794 7.5 79.8978 7.5 79.5V73.5C7.5 73.1022 7.65804 72.7206 7.93934 72.4393C8.22064 72.158 8.60218 72 9 72H87C87.3978 72 87.7794 72.158 88.0607 72.4393C88.342 72.7206 88.5 73.1022 88.5 73.5V79.5C88.5 79.8978 88.342 80.2794 88.0607 80.5607C87.7794 80.842 87.3978 81 87 81Z" fill="#C62828"/>
<path d="M82.4999 87H13.4999C13.2214 87 12.9484 86.9224 12.7114 86.776C12.4745 86.6295 12.283 86.42 12.1584 86.1709L9.15839 80.1709C9.04403 79.9422 8.99003 79.6881 9.00151 79.4326C9.013 79.1772 9.08958 78.929 9.22399 78.7115C9.35841 78.4939 9.54619 78.3144 9.76951 78.1899C9.99282 78.0654 10.2443 78 10.4999 78H85.4999C85.7556 78 86.0071 78.0654 86.2304 78.1899C86.4537 78.3144 86.6415 78.4939 86.7759 78.7115C86.9103 78.929 86.9869 79.1772 86.9984 79.4326C87.0099 79.6881 86.9559 79.9422 86.8415 80.1709L83.8415 86.1709C83.7169 86.42 83.5254 86.6295 83.2885 86.776C83.0515 86.9224 82.7785 87 82.4999 87ZM14.4269 84H81.573L83.073 81H12.9269L14.4269 84Z" fill="#C62828"/>
<path d="M18 79.5H21V82.5H18V79.5Z" fill="#C62828"/>
<path d="M24 79.5H27V82.5H24V79.5Z" fill="#C62828"/>
<path d="M69 79.5H72V82.5H69V79.5Z" fill="#C62828"/>
<path d="M75 79.5H78V82.5H75V79.5Z" fill="#C62828"/>
<path d="M21 73.5H24V79.5H21V73.5Z" fill="#C62828"/>
<path d="M72 73.5H75V79.5H72V73.5Z" fill="#C62828"/>
<path d="M21 54H48V57H21V54Z" fill="#C62828"/>
<path d="M36.0381 55.8217L38.9811 55.2337L40.4802 62.7368L37.5372 63.3248L36.0381 55.8217Z" fill="#C62828"/>
<path d="M28.4998 67.5001H25.4998C25.4921 63.9312 24.335 60.4598 22.1998 57.6001L21.2998 56.4001L23.6998 54.6001L24.5998 55.8001C27.1231 59.1798 28.4906 63.2824 28.4998 67.5001Z" fill="#C62828"/>
<path d="M88.5 73.5H85.5V65.6738C85.5022 63.9587 84.9299 62.2922 83.8744 60.9404C82.8188 59.5885 81.3409 58.6292 79.6764 58.2154L74.6362 56.9552C74.4263 56.9028 74.2302 56.8055 74.0614 56.6701C73.8926 56.5347 73.7551 56.3643 73.6584 56.1707L67.9209 44.6939C67.5182 43.8825 66.8963 43.2 66.1257 42.7239C65.355 42.2478 64.4665 41.9971 63.5606 42H48V39H63.5606C65.0239 38.9953 66.4593 39.4004 67.7041 40.1695C68.949 40.9386 69.9536 42.041 70.6041 43.3517L76.0333 54.2121L80.4038 55.3049C82.7177 55.8802 84.7723 57.2139 86.2398 59.0933C87.7072 60.9727 88.503 63.2894 88.5 65.6738V73.5Z" fill="#C62828"/>
<path d="M48 54H75V57H48V54Z" fill="#C62828"/>
<path d="M55.5479 62.6775L57.047 55.1743L59.99 55.7623L58.4909 63.2655L55.5479 62.6775Z" fill="#C62828"/>
<path d="M69 69C68.6022 69 68.2206 68.842 67.9393 68.5607C67.658 68.2794 67.5 67.8978 67.5 67.5C67.5092 63.2823 68.8767 59.1797 71.4 55.8L72.3 54.6C72.4182 54.4424 72.5663 54.3096 72.7358 54.2093C72.9053 54.1089 73.0929 54.0429 73.2879 54.0151C73.4829 53.9872 73.6815 53.998 73.8723 54.0469C74.0631 54.0958 74.2424 54.1818 74.4 54.3C74.5576 54.4182 74.6903 54.5663 74.7907 54.7358C74.8911 54.9053 74.9571 55.0929 74.9849 55.2879C75.0128 55.4829 75.002 55.6814 74.9531 55.8723C74.9042 56.0631 74.8182 56.2424 74.7 56.4L73.8 57.6C71.6648 60.4597 70.5077 63.9311 70.5 67.5C70.5 67.8978 70.342 68.2794 70.0607 68.5607C69.7794 68.842 69.3978 69 69 69Z" fill="#A81D1D"/>
<path d="M25.5 67.5H28.5V70.5H25.5V67.5Z" fill="#C62828"/>
<path d="M75 55.5H78V57H75V55.5Z" fill="#C62828"/>
<path d="M18 55.5H21V57H18V55.5Z" fill="#C62828"/>
<path d="M69 12L68.9025 12.4256L64.5 31.5H31.5L30.3506 26.5238L27 12L39 18L48 3L57 18L69 12Z" fill="#DDA62C"/>
<path d="M69 12L68.9025 12.4256C64.8943 17.0094 59.951 20.6818 54.405 23.1957C48.8591 25.7096 42.8391 27.0068 36.75 27C34.608 27.0004 32.469 26.8413 30.3506 26.5238L27 12L39 18L48 3L57 18L69 12Z" fill="#FBC02D"/>
<path d="M18 67.5C16.8133 67.5 15.6533 67.1481 14.6666 66.4888C13.6799 65.8295 12.9109 64.8925 12.4567 63.7961C12.0026 62.6997 11.8838 61.4933 12.1153 60.3295C12.3468 59.1656 12.9182 58.0965 13.7574 57.2574C14.5965 56.4182 15.6656 55.8468 16.8295 55.6153C17.9933 55.3838 19.1997 55.5026 20.2961 55.9567C21.3925 56.4109 22.3295 57.1799 22.9888 58.1666C23.6481 59.1533 24 60.3133 24 61.5C23.9982 63.0908 23.3655 64.6158 22.2407 65.7407C21.1158 66.8655 19.5908 67.4982 18 67.5ZM18 58.5C17.4067 58.5 16.8266 58.6759 16.3333 59.0056C15.8399 59.3352 15.4554 59.8038 15.2284 60.352C15.0013 60.9001 14.9419 61.5033 15.0576 62.0853C15.1734 62.6672 15.4591 63.2018 15.8787 63.6213C16.2982 64.0409 16.8328 64.3266 17.4147 64.4424C17.9967 64.5581 18.5999 64.4987 19.1481 64.2716C19.6962 64.0446 20.1648 63.6601 20.4944 63.1667C20.8241 62.6734 21 62.0933 21 61.5C20.9991 60.7046 20.6827 59.9421 20.1203 59.3797C19.5579 58.8173 18.7954 58.5009 18 58.5Z" fill="#727272"/>
<path d="M79.5 67.5C78.3133 67.5 77.1533 67.1481 76.1666 66.4888C75.1799 65.8295 74.4109 64.8925 73.9567 63.7961C73.5026 62.6997 73.3838 61.4933 73.6153 60.3295C73.8468 59.1656 74.4182 58.0965 75.2574 57.2574C76.0965 56.4182 77.1656 55.8468 78.3295 55.6153C79.4933 55.3838 80.6997 55.5026 81.7961 55.9567C82.8925 56.4109 83.8295 57.1799 84.4888 58.1666C85.1481 59.1533 85.5 60.3133 85.5 61.5C85.4982 63.0908 84.8655 64.6158 83.7407 65.7407C82.6158 66.8655 81.0908 67.4982 79.5 67.5ZM79.5 58.5C78.9067 58.5 78.3266 58.6759 77.8333 59.0056C77.3399 59.3352 76.9554 59.8038 76.7284 60.352C76.5013 60.9001 76.4419 61.5033 76.5576 62.0853C76.6734 62.6672 76.9591 63.2018 77.3787 63.6213C77.7982 64.0409 78.3328 64.3266 78.9147 64.4424C79.4967 64.5581 80.0999 64.4987 80.6481 64.2716C81.1962 64.0446 81.6648 63.6601 81.9944 63.1667C82.3241 62.6734 82.5 62.0933 82.5 61.5C82.4991 60.7046 82.1827 59.9421 81.6203 59.3797C81.0579 58.8173 80.2954 58.5009 79.5 58.5Z" fill="#727272"/>
<path d="M28.875 69C28.4772 69 28.0956 68.842 27.8143 68.5607C27.533 68.2794 27.375 67.8978 27.375 67.5C27.3673 63.9311 26.2102 60.4597 24.075 57.6L23.175 56.4C22.9363 56.0817 22.8338 55.6817 22.8901 55.2879C22.9463 54.894 23.1567 54.5387 23.475 54.3C23.7933 54.0613 24.1933 53.9588 24.5871 54.0151C24.981 54.0713 25.3363 54.2817 25.575 54.6L26.475 55.8C28.9983 59.1797 30.3658 63.2823 30.375 67.5C30.375 67.8978 30.217 68.2794 29.9357 68.5607C29.6544 68.842 29.2728 69 28.875 69Z" fill="#A81D1D"/>
<path d="M23.25 80.25H15C14.8011 80.25 14.6103 80.171 14.4697 80.0303C14.329 79.8897 14.25 79.6989 14.25 79.5C14.25 79.3011 14.329 79.1103 14.4697 78.9697C14.6103 78.829 14.8011 78.75 15 78.75H21.75V76.5C21.75 76.3011 21.829 76.1103 21.9697 75.9697C22.1103 75.829 22.3011 75.75 22.5 75.75C22.6989 75.75 22.8897 75.829 23.0303 75.9697C23.171 76.1103 23.25 76.3011 23.25 76.5V80.25Z" fill="#A81D1D"/>
<path d="M87.75 80.25H81C80.8011 80.25 80.6103 80.171 80.4697 80.0303C80.329 79.8897 80.25 79.6989 80.25 79.5C80.25 79.3011 80.329 79.1103 80.4697 78.9697C80.6103 78.829 80.8011 78.75 81 78.75H86.25V73.5C86.25 73.3011 86.329 73.1103 86.4697 72.9697C86.6103 72.829 86.8011 72.75 87 72.75C87.1989 72.75 87.3897 72.829 87.5303 72.9697C87.671 73.1103 87.75 73.3011 87.75 73.5V80.25Z" fill="#A81D1D"/>
<path d="M82.5 87H13.5C13.1022 87 12.7206 86.842 12.4393 86.5607C12.158 86.2794 12 85.8978 12 85.5C12 85.1022 12.158 84.7206 12.4393 84.4393C12.7206 84.158 13.1022 84 13.5 84H82.5C82.8978 84 83.2794 84.158 83.5607 84.4393C83.842 84.7206 84 85.1022 84 85.5C84 85.8978 83.842 86.2794 83.5607 86.5607C83.2794 86.842 82.8978 87 82.5 87Z" fill="#991A1A"/>
</svg>
