<svg width="96" height="96" viewBox="0 0 96 96" fill="none" xmlns="http://www.w3.org/2000/svg">
<path d="M66 30C67.6569 30 69 28.6569 69 27C69 25.3431 67.6569 24 66 24C64.3431 24 63 25.3431 63 27C63 28.6569 64.3431 30 66 30Z" fill="#4A4343"/>
<path d="M56.4281 12.0469L60 18H46.5V10.5H53.6944C54.2449 10.4996 54.7861 10.642 55.2652 10.9131C55.7443 11.1842 56.145 11.5748 56.4281 12.0469Z" fill="#2C66BA"/>
<path d="M46.5 10.5V18H33L36.9 11.5013C37.083 11.1957 37.3421 10.9429 37.652 10.7674C37.9619 10.5919 38.312 10.4998 38.6681 10.5H46.5Z" fill="#2C66BA"/>
<path d="M33 30C34.6569 30 36 28.6569 36 27C36 25.3431 34.6569 24 33 24C31.3431 24 30 25.3431 30 27C30 28.6569 31.3431 30 33 30Z" fill="#4A4343"/>
<path d="M70.5004 18H25.1592C24.7597 18.0002 24.3732 18.1419 24.0684 18.4C23.7636 18.6582 23.5601 19.016 23.4942 19.41L22.521 25.2525C22.4851 25.4674 22.4964 25.6876 22.5542 25.8977C22.612 26.1079 22.7148 26.3029 22.8556 26.4692C22.9964 26.6355 23.1718 26.7692 23.3695 26.8608C23.5672 26.9525 23.7825 27 24.0004 27H30.0004C30.0004 26.2044 30.3165 25.4413 30.8791 24.8787C31.4417 24.3161 32.2048 24 33.0004 24C33.7961 24 34.5591 24.3161 35.1217 24.8787C35.6844 25.4413 36.0004 26.2044 36.0004 27H63.0004C63.0004 26.2044 63.3165 25.4413 63.8791 24.8787C64.4417 24.3161 65.2048 24 66.0004 24C66.7961 24 67.5591 24.3161 68.1217 24.8787C68.6844 25.4413 69.0004 26.2044 69.0004 27H75.0004V22.5C75.0001 21.3066 74.5259 20.1622 73.6821 19.3183C72.8382 18.4745 71.6938 18.0003 70.5004 18Z" fill="#C62828"/>
<path d="M36.0005 25.5H63.0005V28.5H36.0005V25.5Z" fill="#C62828"/>
<path d="M75.0004 28.5H69.0004V25.5H73.5004V22.5C73.4995 21.7046 73.1831 20.9421 72.6207 20.3797C72.0583 19.8173 71.2958 19.5009 70.5004 19.5H25.1592C25.1144 19.5001 25.0711 19.5161 25.0371 19.5452C25.003 19.5743 24.9804 19.6146 24.9734 19.6588L24.0004 25.5H30.0004V28.5H24.0004C23.5647 28.5 23.1343 28.4051 22.739 28.2219C22.3437 28.0387 21.993 27.7716 21.7114 27.4391C21.4298 27.1067 21.224 26.7169 21.1083 26.2969C20.9925 25.8768 20.9697 25.4366 21.0413 25.0069L22.0146 19.1636C22.1373 18.4187 22.521 17.7416 23.0971 17.2536C23.6732 16.7657 24.4042 16.4985 25.1592 16.5H70.5004C72.0912 16.5018 73.6163 17.1345 74.7411 18.2593C75.8659 19.3842 76.4986 20.9093 76.5004 22.5V27C76.5004 27.3978 76.3424 27.7794 76.0611 28.0607C75.7798 28.342 75.3982 28.5 75.0004 28.5Z" fill="#C62828"/>
<path d="M61.5005 27H58.5005V18.4155L55.1424 12.8186C54.9917 12.5693 54.7794 12.363 54.5259 12.2196C54.2723 12.0763 53.9861 12.0006 53.6949 12H48.0005V27H45.0005V10.5C45.0005 10.1022 45.1585 9.72064 45.4398 9.43934C45.7211 9.15804 46.1027 9 46.5005 9H53.6949C54.504 9.00207 55.2989 9.21253 56.0031 9.61109C56.7072 10.0096 57.2968 10.5829 57.7151 11.2755L61.2867 17.2283C61.4266 17.4614 61.5005 17.7281 61.5005 18V27Z" fill="#C62828"/>
<path d="M34.2865 18.7719L31.7144 17.2281L35.6144 10.7293C35.9319 10.2028 36.3797 9.76712 36.9147 9.46421C37.4497 9.16129 38.0537 9.00141 38.6685 9H46.5004V12H38.6685C38.5718 12.0001 38.4768 12.0251 38.3926 12.0726C38.3084 12.1202 38.2378 12.1886 38.1878 12.2713L34.2865 18.7719Z" fill="#C62828"/>
<path d="M31.5005 18H34.5005V24H31.5005V18Z" fill="#C62828"/>
<path d="M52.2431 82.5C52.2428 82.871 52.1942 83.2403 52.0987 83.5988C51.9067 84.3184 51.5276 84.9743 51 85.5L48 88.5C47.606 88.894 47.1383 89.2065 46.6236 89.4197C46.1088 89.6329 45.5571 89.7427 45 89.7427C44.4428 89.7427 43.8911 89.6329 43.3764 89.4197C42.8616 89.2065 42.3939 88.894 42 88.5C41.606 88.106 41.2935 87.6383 41.0803 87.1236C40.8671 86.6089 40.7573 86.0572 40.7573 85.5C40.7573 84.9429 40.8671 84.3912 41.0803 83.8764C41.2935 83.3617 41.606 82.894 42 82.5L45 79.5C45.5934 78.9067 46.3494 78.5027 47.1724 78.3391C47.9954 78.1754 48.8484 78.2594 49.6236 78.5805C50.3989 78.9016 51.0615 79.4454 51.5278 80.143C51.994 80.8407 52.243 81.6609 52.2431 82.5Z" fill="#FFCCBC"/>
<path d="M39 67.5C39.3941 67.8939 39.7067 68.3615 39.92 68.8763C40.1333 69.391 40.2431 69.9428 40.2431 70.5C40.2431 71.0572 40.1333 71.6089 39.92 72.1237C39.7067 72.6384 39.3941 73.1061 39 73.5L34.5 78C34.106 78.3939 33.6383 78.7064 33.1236 78.9197C32.6088 79.1329 32.0571 79.2426 31.5 79.2426C30.9428 79.2426 30.3911 79.1329 29.8764 78.9197C29.3616 78.7064 28.8939 78.3939 28.5 78C28.106 77.606 27.7935 77.1383 27.5803 76.6236C27.3671 76.1088 27.2573 75.5571 27.2573 75C27.2573 74.4428 27.3671 73.8911 27.5803 73.3764C27.7935 72.8616 28.106 72.3939 28.5 72L33 67.5C33.3938 67.1059 33.8615 66.7932 34.3763 66.5799C34.891 66.3666 35.4428 66.2568 36 66.2568C36.5572 66.2568 37.1089 66.3666 37.6236 66.5799C38.1384 66.7932 38.6061 67.1059 39 67.5Z" fill="#FFCCBC"/>
<path d="M45 73.5C45.3941 73.8939 45.7067 74.3615 45.92 74.8763C46.1333 75.391 46.2431 75.9428 46.2431 76.5C46.2431 77.0572 46.1333 77.6089 45.92 78.1237C45.7067 78.6384 45.3941 79.1061 45 79.5L42 82.5L40.5 84C39.7043 84.7956 38.6252 85.2426 37.5 85.2426C36.3747 85.2426 35.2956 84.7956 34.5 84C33.7043 83.2043 33.2573 82.1252 33.2573 81C33.2573 79.8748 33.7043 78.7956 34.5 78L39 73.5C39.3938 73.1059 39.8615 72.7932 40.3763 72.5799C40.891 72.3666 41.4428 72.2568 42 72.2568C42.5572 72.2568 43.1089 72.3666 43.6236 72.5799C44.1384 72.7932 44.6061 73.1059 45 73.5Z" fill="#FFCCBC"/>
<path d="M55.5 86.7431C54.7455 86.7451 53.9982 86.5974 53.3011 86.3086C52.6041 86.0198 51.9713 85.5956 51.4393 85.0606L50.4268 84.0481L50.6486 83.2132C50.7107 82.9805 50.7422 82.7406 50.7424 82.4998C50.7425 81.9572 50.5817 81.4268 50.2803 80.9757C49.9789 80.5245 49.5505 80.1729 49.0492 79.9653C48.548 79.7577 47.9964 79.7034 47.4643 79.8094C46.9322 79.9153 46.4435 80.1767 46.0599 80.5605L43.9386 78.4391C44.1932 78.1844 44.3953 77.8821 44.5331 77.5493C44.6709 77.2166 44.7419 76.8599 44.7419 76.4998C44.7419 76.1396 44.6709 75.783 44.5331 75.4502C44.3953 75.1175 44.1932 74.8151 43.9386 74.5605C43.6839 74.3058 43.3815 74.1038 43.0488 73.9659C42.7161 73.8281 42.3594 73.7572 41.9993 73.7572C41.6391 73.7572 41.2824 73.8281 40.9497 73.9659C40.617 74.1038 40.3146 74.3058 40.0599 74.5605L37.9386 72.4391C38.1932 72.1844 38.3953 71.8821 38.5331 71.5493C38.6709 71.2166 38.7419 70.8599 38.7419 70.4998C38.7419 70.1396 38.6709 69.783 38.5331 69.4502C38.3953 69.1175 38.1932 68.8151 37.9386 68.5605C37.6839 68.3058 37.3815 68.1038 37.0488 67.9659C36.7161 67.8281 36.3594 67.7572 35.9993 67.7572C35.6391 67.7572 35.2824 67.8281 34.9497 67.9659C34.617 68.1038 34.3146 68.3058 34.0599 68.5605L29.5599 73.0605C29.2679 73.3511 29.0456 73.7043 28.9099 74.0934L28.4799 75.3202L26.6295 74.9557L1.5 67.1026V36.9187L29.8483 46.3687L39.0628 41.25C40.416 40.4974 41.9777 40.2065 43.5111 40.4212C45.0445 40.6359 46.4662 41.3446 47.5607 42.4398L49.3712 44.25L42.7348 50.8863C44.0768 51.7428 45.6709 52.1157 47.2536 51.9435C48.8363 51.7713 50.3129 51.0643 51.4393 49.9393L54 47.3786L73.0607 66.4393C73.8221 67.2059 74.3532 68.1707 74.5936 69.2241C74.834 70.2775 74.7741 71.3772 74.4206 72.3982C73.9194 73.8236 72.8776 74.9946 71.5202 75.6583C70.1628 76.322 68.5988 76.4251 67.1661 75.9453C66.9414 77.2859 66.249 78.5035 65.2116 79.3818C64.1743 80.2602 62.8593 80.7425 61.5 80.7431C61.4125 80.7431 61.325 80.7411 61.2375 80.7373C61.2414 80.8248 61.2433 80.9123 61.2433 80.9998C61.2431 82.5229 60.6379 83.9836 59.5609 85.0606C58.4838 86.1376 57.0231 86.7428 55.5 86.7431Z" fill="#FFCCBC"/>
<path d="M71.0176 73.0399L71.5895 71.4068C71.7583 70.9191 71.7868 70.3938 71.6719 69.8907C71.557 69.3876 71.3032 68.9268 70.9394 68.5607L54.0001 51.6214L53.5608 52.0607C51.6879 53.9328 49.1482 54.9844 46.5001 54.9844C43.852 54.9844 41.3123 53.9328 39.4394 52.0607L38.3789 51L46.5475 42.8312C48.1719 41.2062 50.3093 40.1942 52.5958 39.9676C54.8823 39.741 57.1767 40.3137 59.0885 41.5883L66.2607 46.3709L94.5001 38.5266V67.108L73.5805 73.5447L71.0176 73.0399Z" fill="#FFCCBC"/>
<path d="M61.5 80.74C60.746 80.7413 59.999 80.5936 59.3022 80.3054C58.6053 80.0172 57.9723 79.5943 57.4394 79.0607C57.158 78.7794 57 78.3979 57 78C57 77.6022 57.158 77.2207 57.4394 76.9394C57.7207 76.658 58.1022 76.5 58.5 76.5C58.8979 76.5 59.2794 76.658 59.5607 76.9394C59.8153 77.1942 60.1176 77.3963 60.4504 77.5343C60.7831 77.6722 61.1398 77.7432 61.5 77.7432C61.8603 77.7432 62.2169 77.6722 62.5497 77.5343C62.8825 77.3963 63.1848 77.1942 63.4394 76.9394C63.7207 76.658 64.1022 76.5 64.5 76.5C64.8979 76.5 65.2794 76.658 65.5607 76.9394C65.842 77.2207 66.0001 77.6022 66.0001 78C66.0001 78.3979 65.842 78.7794 65.5607 79.0607C65.0278 79.5943 64.3947 80.0172 63.6979 80.3054C63.001 80.5936 62.2541 80.7413 61.5 80.74Z" fill="#CB9B8C"/>
<path d="M55.5001 86.7432C54.7456 86.7451 53.9983 86.5974 53.3013 86.3087C52.6042 86.0199 51.9714 85.5957 51.4394 85.0607L51.0382 84.6595C50.7568 84.3782 50.5987 83.9966 50.5986 83.5987C50.5986 83.2008 50.7566 82.8192 51.0379 82.5378C51.3192 82.2564 51.7008 82.0983 52.0987 82.0983C52.4966 82.0982 52.8782 82.2562 53.1596 82.5375L53.5608 82.9388C54.0756 83.4524 54.773 83.7408 55.5001 83.7408C56.2272 83.7408 56.9247 83.4524 57.4394 82.9388C57.5787 82.7995 57.7441 82.689 57.9261 82.6136C58.1081 82.5382 58.3031 82.4994 58.5001 82.4994C58.6971 82.4994 58.8922 82.5382 59.0742 82.6136C59.2562 82.689 59.4215 82.7995 59.5608 82.9388C59.7001 83.0781 59.8106 83.2434 59.886 83.4254C59.9614 83.6074 60.0002 83.8025 60.0002 83.9995C60.0002 84.1965 59.9614 84.3915 59.886 84.5735C59.8106 84.7555 59.7001 84.9209 59.5608 85.0602C59.0289 85.5952 58.3961 86.0195 57.699 86.3084C57.002 86.5973 56.2546 86.7451 55.5001 86.7432Z" fill="#CB9B8C"/>
<path d="M58.5 79.5C58.303 79.5003 58.1079 79.4616 57.9259 79.3862C57.7438 79.3108 57.5785 79.2002 57.4394 79.0607L52.9394 74.5607C52.658 74.2794 52.5 73.8979 52.5 73.5C52.5 73.1022 52.658 72.7207 52.9394 72.4394C53.2207 72.158 53.6022 72 54 72C54.3979 72 54.7794 72.158 55.0607 72.4394L59.5607 76.9394C59.7705 77.1491 59.9134 77.4164 59.9713 77.7074C60.0292 77.9984 59.9994 78.3 59.8859 78.5741C59.7724 78.8482 59.5801 79.0824 59.3334 79.2473C59.0867 79.4121 58.7967 79.5001 58.5 79.5Z" fill="#CB9B8C"/>
<path d="M45.0001 81C44.7034 81.0001 44.4134 80.9121 44.1667 80.7473C43.92 80.5824 43.7277 80.3482 43.6142 80.0741C43.5006 79.8 43.4709 79.4984 43.5288 79.2074C43.5867 78.9164 43.7296 78.6491 43.9394 78.4394C44.1942 78.1848 44.3964 77.8825 44.5343 77.5497C44.6722 77.2169 44.7432 76.8603 44.7432 76.5C44.7432 76.1398 44.6722 75.7831 44.5343 75.4504C44.3964 75.1176 44.1942 74.8153 43.9394 74.5607C43.6581 74.2794 43.5 73.8979 43.5 73.5C43.5 73.1022 43.6581 72.7207 43.9394 72.4394C44.2207 72.158 44.6022 72 45.0001 72C45.3979 72 45.7794 72.158 46.0607 72.4394C46.5941 72.9725 47.0172 73.6056 47.3059 74.3023C47.5946 74.9991 47.7432 75.7459 47.7432 76.5C47.7432 77.2542 47.5946 78.001 47.3059 78.6978C47.0172 79.3945 46.5941 80.0275 46.0607 80.5607C45.9216 80.7002 45.7563 80.8108 45.5742 80.8862C45.3922 80.9616 45.1971 81.0003 45.0001 81Z" fill="#CB9B8C"/>
<path d="M37.5 86.74C36.746 86.7413 35.999 86.5936 35.3022 86.3054C34.6053 86.0172 33.9723 85.5943 33.4394 85.0607C33.158 84.7794 33 84.3979 33 84C33 83.6022 33.158 83.2207 33.4394 82.9394C33.7207 82.658 34.1022 82.5 34.5 82.5C34.8979 82.5 35.2794 82.658 35.5607 82.9394C36.0755 83.4529 36.7729 83.7413 37.5 83.7413C38.2272 83.7413 38.9246 83.4529 39.4394 82.9394L40.9394 81.4394C41.2207 81.158 41.6022 81 42 81C42.3979 81 42.7794 81.158 43.0607 81.4394C43.342 81.7207 43.5001 82.1022 43.5001 82.5C43.5001 82.8979 43.342 83.2794 43.0607 83.5607L41.5607 85.0607C41.0278 85.5943 40.3947 86.0172 39.6979 86.3054C39.001 86.5936 38.2541 86.7413 37.5 86.74Z" fill="#CB9B8C"/>
<path d="M45 91.24C44.246 91.2413 43.499 91.0936 42.8022 90.8054C42.1053 90.5172 41.4723 90.0943 40.9394 89.5607C40.658 89.2794 40.5 88.8979 40.5 88.5C40.5 88.1022 40.658 87.7207 40.9394 87.4394C41.2207 87.158 41.6022 87 42 87C42.3979 87 42.7794 87.158 43.0607 87.4394C43.5755 87.9529 44.2729 88.2413 45 88.2413C45.7272 88.2413 46.4246 87.9529 46.9394 87.4394L49.9394 84.4394C50.2798 84.0998 50.5247 83.6765 50.6494 83.2122C50.7114 82.9797 50.7429 82.7402 50.7432 82.4997C50.7441 82.1393 50.6735 81.7824 50.5355 81.4495C50.3975 81.1166 50.1949 80.8144 49.9394 80.5604C49.658 80.279 49.5 79.8975 49.5 79.4997C49.5 79.1018 49.658 78.7203 49.9394 78.439C50.2207 78.1577 50.6022 77.9996 51 77.9996C51.3979 77.9996 51.7794 78.1577 52.0607 78.439C52.5958 78.971 53.0199 79.6039 53.3087 80.301C53.5975 80.9981 53.7452 81.7455 53.7432 82.5C53.7434 83.2543 53.5949 84.0011 53.3062 84.6979C53.0175 85.3947 52.5943 86.0277 52.0607 86.5607L49.0607 89.5607C48.5278 90.0943 47.8947 90.5172 47.1979 90.8054C46.501 91.0936 45.7541 91.2413 45 91.24Z" fill="#CB9B8C"/>
<path d="M31.5 80.74C30.746 80.7413 29.999 80.5936 29.3022 80.3054C28.6053 80.0172 27.9723 79.5943 27.4394 79.0607C27.158 78.7794 27 78.3979 27 78C27 77.6022 27.158 77.2207 27.4394 76.9394C27.7207 76.658 28.1022 76.5 28.5 76.5C28.8979 76.5 29.2794 76.658 29.5607 76.9394C30.0755 77.4529 30.7729 77.7413 31.5 77.7413C32.2272 77.7413 32.9246 77.4529 33.4394 76.9394L37.9394 72.4394C38.1942 72.1848 38.3963 71.8825 38.5343 71.5497C38.6722 71.2169 38.7432 70.8603 38.7432 70.5C38.7432 70.1398 38.6722 69.7831 38.5343 69.4504C38.3963 69.1176 38.1942 68.8153 37.9394 68.5607C37.658 68.2794 37.5 67.8979 37.5 67.5C37.5 67.1022 37.658 66.7207 37.9394 66.4394C38.2207 66.158 38.6022 66 39 66C39.3979 66 39.7794 66.158 40.0607 66.4394C40.5941 66.9725 41.0172 67.6056 41.3059 68.3023C41.5946 68.9991 41.7432 69.7459 41.7432 70.5C41.7432 71.2542 41.5946 72.001 41.3059 72.6978C41.0172 73.3945 40.5941 74.0275 40.0607 74.5607L35.5607 79.0607C35.0278 79.5943 34.3947 80.0172 33.6979 80.3054C33.001 80.5936 32.2541 80.7413 31.5 80.74Z" fill="#CB9B8C"/>
<path d="M26.9999 75C26.848 75 26.6971 74.9768 26.5522 74.9314L2.55216 67.4314C2.17243 67.3128 1.8554 67.0481 1.67079 66.6957C1.48618 66.3433 1.44913 65.932 1.56778 65.5523C1.68643 65.1726 1.95107 64.8555 2.30347 64.6709C2.65588 64.4863 3.06718 64.4493 3.44691 64.5679L27.4469 72.0679C27.7895 72.1746 28.0824 72.4006 28.2727 72.7048C28.4629 73.0091 28.5377 73.3714 28.4837 73.7261C28.4296 74.0808 28.2502 74.4044 27.9779 74.6381C27.7057 74.8718 27.3587 75.0002 26.9999 75Z" fill="#CB9B8C"/>
<path d="M69 76.2432C68.2456 76.2451 67.4982 76.0975 66.8012 75.8087C66.1042 75.5199 65.4713 75.0957 64.9394 74.5607L55.9394 65.5607C55.658 65.2794 55.5 64.8979 55.5 64.5C55.5 64.1022 55.658 63.7207 55.9394 63.4394C56.2207 63.158 56.6022 63 57 63C57.3979 63 57.7794 63.158 58.0607 63.4394L67.0607 72.4394C67.389 72.7673 67.795 73.0066 68.2409 73.135C68.6868 73.2633 69.1579 73.2765 69.6103 73.1734C70.0627 73.0702 70.4815 72.854 70.8276 72.545C71.1737 72.236 71.4358 71.8442 71.5894 71.4064C71.7582 70.9188 71.7867 70.3936 71.6718 69.8905C71.5569 69.3874 71.3031 68.9267 70.9394 68.5607C70.658 68.2794 70.5 67.8979 70.5 67.5C70.5 67.1022 70.658 66.7207 70.9394 66.4394C71.2207 66.158 71.6022 66 72 66C72.3979 66 72.7794 66.158 73.0607 66.4394C73.8222 67.2059 74.3533 68.1708 74.5937 69.2242C74.8341 70.2776 74.7741 71.3773 74.4207 72.3983C74.0268 73.5217 73.2936 74.4951 72.3226 75.1839C71.3515 75.8726 70.1905 76.2428 69 76.2432Z" fill="#CB9B8C"/>
<path d="M46.5001 54.9844C44.6271 54.9865 42.7915 54.4606 41.2038 53.4671C41.0368 53.3625 40.8921 53.2261 40.7779 53.0656C40.6637 52.9051 40.5822 52.7237 40.5381 52.5317C40.494 52.3397 40.4881 52.1409 40.5208 51.9467C40.5536 51.7524 40.6242 51.5665 40.7288 51.3996C40.8334 51.2326 40.9698 51.0879 41.1303 50.9737C41.2908 50.8595 41.4722 50.778 41.6642 50.7339C41.8562 50.6898 42.055 50.6839 42.2493 50.7167C42.4435 50.7494 42.6294 50.82 42.7964 50.9246C43.9076 51.6172 45.1907 51.9844 46.5001 51.9844C47.8094 51.9844 49.0926 51.6172 50.2037 50.9246C50.5409 50.7134 50.9482 50.6448 51.3359 50.7339C51.7236 50.8229 52.0601 51.0624 52.2713 51.3996C52.4825 51.7367 52.5511 52.144 52.4621 52.5317C52.373 52.9194 52.1335 53.2559 51.7964 53.4671C50.2086 54.4606 48.373 54.9865 46.5001 54.9844Z" fill="#CB9B8C"/>
<path d="M73.4998 73.5C73.1405 73.5001 72.793 73.3713 72.5206 73.1369C72.2482 72.9025 72.0691 72.5782 72.0157 72.2228C71.9623 71.8675 72.0382 71.5048 72.2297 71.2007C72.4212 70.8966 72.7154 70.6714 73.059 70.566L92.559 64.566C92.7476 64.5067 92.9461 64.4854 93.143 64.5031C93.3399 64.5209 93.5313 64.5774 93.7063 64.6694C93.8813 64.7614 94.0364 64.887 94.1627 65.0392C94.2889 65.1913 94.3838 65.3669 94.442 65.5559C94.5001 65.7448 94.5204 65.9434 94.5015 66.1402C94.4826 66.337 94.425 66.5281 94.332 66.7026C94.239 66.8771 94.1125 67.0314 93.9596 67.1568C93.8068 67.2822 93.6306 67.3761 93.4414 67.4332L73.9414 73.4332C73.7983 73.4773 73.6495 73.4998 73.4998 73.5Z" fill="#CB9B8C"/>
<path d="M33 31.5C32.11 31.5 31.24 31.2361 30.4999 30.7416C29.7599 30.2471 29.1831 29.5443 28.8425 28.7221C28.5019 27.8998 28.4128 26.995 28.5865 26.1221C28.7601 25.2492 29.1887 24.4474 29.818 23.818C30.4474 23.1887 31.2492 22.7601 32.1221 22.5865C32.995 22.4128 33.8998 22.5019 34.7221 22.8425C35.5443 23.1831 36.2471 23.7599 36.7416 24.4999C37.2361 25.24 37.5 26.11 37.5 27C37.4987 28.1931 37.0241 29.3369 36.1805 30.1805C35.3369 31.0241 34.1931 31.4987 33 31.5ZM33 25.5C32.7033 25.5 32.4133 25.588 32.1666 25.7528C31.92 25.9176 31.7277 26.1519 31.6142 26.426C31.5007 26.7001 31.4709 27.0017 31.5288 27.2926C31.5867 27.5836 31.7296 27.8509 31.9393 28.0607C32.1491 28.2704 32.4164 28.4133 32.7074 28.4712C32.9983 28.5291 33.2999 28.4994 33.574 28.3858C33.8481 28.2723 34.0824 28.08 34.2472 27.8334C34.412 27.5867 34.5 27.2967 34.5 27C34.4996 26.6023 34.3414 26.221 34.0602 25.9398C33.779 25.6586 33.3977 25.5004 33 25.5Z" fill="black"/>
<path d="M66 31.5C65.11 31.5 64.24 31.2361 63.4999 30.7416C62.7599 30.2471 62.1831 29.5443 61.8425 28.7221C61.502 27.8998 61.4128 26.995 61.5865 26.1221C61.7601 25.2492 62.1887 24.4474 62.818 23.818C63.4474 23.1887 64.2492 22.7601 65.1221 22.5865C65.995 22.4128 66.8998 22.5019 67.7221 22.8425C68.5443 23.1831 69.2471 23.7599 69.7416 24.4999C70.2361 25.24 70.5 26.11 70.5 27C70.4987 28.1931 70.0241 29.3369 69.1805 30.1805C68.3369 31.0241 67.1931 31.4987 66 31.5ZM66 25.5C65.7033 25.5 65.4133 25.588 65.1666 25.7528C64.92 25.9176 64.7277 26.1519 64.6142 26.426C64.5007 26.7001 64.4709 27.0017 64.5288 27.2926C64.5867 27.5836 64.7296 27.8509 64.9393 28.0607C65.1491 28.2704 65.4164 28.4133 65.7074 28.4712C65.9983 28.5291 66.2999 28.4994 66.574 28.3858C66.8481 28.2723 67.0824 28.08 67.2472 27.8334C67.412 27.5867 67.5 27.2967 67.5 27C67.4996 26.6023 67.3414 26.221 67.0602 25.9398C66.779 25.6586 66.3977 25.5004 66 25.5Z" fill="black"/>
<path d="M60 28.5H39C38.6022 28.5 38.2206 28.342 37.9393 28.0607C37.658 27.7794 37.5 27.3978 37.5 27C37.5 26.6022 37.658 26.2206 37.9393 25.9393C38.2206 25.658 38.6022 25.5 39 25.5H60C60.3978 25.5 60.7794 25.658 61.0607 25.9393C61.342 26.2206 61.5 26.6022 61.5 27C61.5 27.3978 61.342 27.7794 61.0607 28.0607C60.7794 28.342 60.3978 28.5 60 28.5Z" fill="#8E0000"/>
<path d="M75 28.5H72C71.6022 28.5 71.2206 28.342 70.9393 28.0607C70.658 27.7794 70.5 27.3978 70.5 27C70.5 26.6022 70.658 26.2206 70.9393 25.9393C71.2206 25.658 71.6022 25.5 72 25.5H75C75.3978 25.5 75.7794 25.658 76.0607 25.9393C76.342 26.2206 76.5 26.6022 76.5 27C76.5 27.3978 76.342 27.7794 76.0607 28.0607C75.7794 28.342 75.3978 28.5 75 28.5Z" fill="#8E0000"/>
<path d="M27 28.5H22.5C22.1022 28.5 21.7206 28.342 21.4393 28.0607C21.158 27.7794 21 27.3978 21 27C21 26.6022 21.158 26.2206 21.4393 25.9393C21.7206 25.658 22.1022 25.5 22.5 25.5H27C27.3978 25.5 27.7794 25.658 28.0607 25.9393C28.342 26.2206 28.5 26.6022 28.5 27C28.5 27.3978 28.342 27.7794 28.0607 28.0607C27.7794 28.342 27.3978 28.5 27 28.5Z" fill="#8E0000"/>
</svg>
