<svg id="Capa_1" enable-background="new 0 0 512 512" viewBox="0 0 512 512" xmlns="http://www.w3.org/2000/svg"><g><path d="m213.807 95.22 22.66-56.161c-5.736.335-11.545-.929-16.735-3.793l-14.938-8.243c-4.647-2.564-10.285-2.564-14.933.001l-14.932 8.241c-9.295 5.13-20.572 5.13-29.867 0l-14.933-8.241c-4.647-2.565-10.286-2.565-14.933 0l-14.931 8.24c-9.295 5.13-20.573 5.13-29.867 0-5.721-3.157-11.831 3.487-8.207 8.924l36.074 54.111 97.917 10.615c1.721-.001 16.669-12.261 17.625-13.694z" fill="#9be69d"/><path d="m249.606 35.259-.011.006c-4.104 2.265-8.594 3.528-13.129 3.793l-37.964 56.946c-.955 1.433-2.564 2.294-4.286 2.294h-95.952l13.736 20.604 46.758 30.905 49.242-30.905 49.812-74.718c3.624-5.437-2.486-12.082-8.206-8.925z" fill="#6fd7a3"/><path d="m39.512 476.596 211.014 3.404-15.13-297.788-27.396-31.31-46.311-30.905-49.689 30.905-31.599 36.113c-51.832 59.236-80.401 135.272-80.401 213.983v26.493c0 6.94 1.19 13.602 3.377 19.793 6.773 11.376 21.962 29.312 36.135 29.312z" fill="#9be69d"/><path d="m205.457 140.6v-11.396c0-5.69-12.854-10.302-18.543-10.302h-80.612c-5.69 0-10.302 4.612-10.302 10.302v11.396c0 5.69 4.612 10.302 10.302 10.302h80.612c5.689 0 18.543-4.613 18.543-10.302z" fill="#3c87d0"/><path d="m213.698 118.902h-26.785c5.69 0 10.302 4.612 10.302 10.302v11.396c0 5.69-4.612 10.302-10.302 10.302h26.785c5.689 0 10.302-4.612 10.302-10.302v-11.396c0-5.69-4.612-10.302-10.302-10.302z" fill="#0078c8"/><path d="m239.599 187.014-4.202-4.803v278.935c0 2.845-2.306 5.151-5.151 5.151h-193.5c-14.174 0-26.596-7.638-33.369-19.014 8.153 23.08 30.162 39.617 56.033 39.617h212.042l48.548-85.902c0-78.711-28.569-154.747-80.401-213.984z" fill="#6fd7a3"/><path d="m501.698 476.6-6.181-309.698h-224.064c-8.534 0-15.453 6.918-15.453 15.453v288.064z" fill="#3c87d0"/><path d="m496.547 166.902h-1.03v298.366c0 2.845-2.306 5.151-5.151 5.151h-234.366v1.03c0 8.534 6.918 15.453 15.453 15.453h225.095c8.534 0 15.453-6.918 15.453-15.453v-289.095c-.001-8.534-6.919-15.452-15.454-15.452z" fill="#0078c8"/><path d="m293.151 310.901c-2.845 0-5.151 2.306-5.151 5.151v123.396l153.834 7.726 35.671-49.887-12.957-86.386z" fill="#fff"/><path d="m288 449.751c0 2.845 2.306 5.151 5.151 5.151h138.849l7.726-15.453h-151.726z" fill="#dff6fd"/><path d="m480 316.052c0-2.845-2.306-5.151-5.151-5.151h-10.302v78.905l15.453-30.905z" fill="#dff6fd"/><path d="m471.943 259.952-7.396-61.05h-171.396c-2.845 0-5.151 2.306-5.151 5.151v59.396l175.131 10.089c2.845 0 8.812-10.742 8.812-13.586z" fill="#c8effe"/><path d="m474.849 198.902h-10.302v59.396c0 2.845-2.306 5.151-5.151 5.151h-171.396v10.302c0 2.845 2.306 5.151 5.151 5.151h181.698c2.845 0 5.151-2.306 5.151-5.151v-69.698c0-2.845-2.306-5.151-5.151-5.151z" fill="#99e6fc"/><path d="m471.943 433.634-7.396-74.732h-32.547v80.547l30.029 7.726c2.845 0 9.914-10.696 9.914-13.541z" fill="#f07281"/><path d="m464.547 358.901v75.396c0 2.845-2.306 5.151-5.151 5.151h-27.396v15.453h42.849c2.845 0 5.151-2.306 5.151-5.151v-90.849z" fill="#eb5569"/><path d="m336 254.628h-16c-4.268 0-7.726-3.459-7.726-7.726s3.459-7.726 7.726-7.726h16c4.268 0 7.726 3.459 7.726 7.726s-3.458 7.726-7.726 7.726z" fill="#3c87d0"/><path d="m474.849 303.175h-181.698c-7.101 0-12.877 5.777-12.877 12.877v133.698c0 7.101 5.777 12.877 12.877 12.877h181.698c7.101 0 12.877-5.777 12.877-12.877v-133.698c0-7.1-5.776-12.877-12.877-12.877zm-7.726 48h-22.245c-2.845 0-5.151-2.306-5.151-5.151v-22.245c0-2.845 2.306-5.151 5.151-5.151h22.245c2.845 0 5.151 2.306 5.151 5.151v22.245c0 2.845-2.307 5.151-5.151 5.151zm-166.246 15.453h22.245c2.845 0 5.151 2.306 5.151 5.151v22.245c0 2.845-2.306 5.151-5.151 5.151h-22.245c-2.845 0-5.151-2.306-5.151-5.151v-22.245c0-2.845 2.307-5.151 5.151-5.151zm48 0h22.245c2.845 0 5.151 2.306 5.151 5.151v22.245c0 2.845-2.306 5.151-5.151 5.151h-22.245c-2.845 0-5.151-2.306-5.151-5.151v-22.245c0-2.845 2.307-5.151 5.151-5.151zm-5.151-20.604v-22.245c0-2.845 2.306-5.151 5.151-5.151h22.245c2.845 0 5.151 2.306 5.151 5.151v22.245c0 2.845-2.306 5.151-5.151 5.151h-22.245c-2.844 0-5.151-2.306-5.151-5.151zm32.548 73.755v22.245c0 2.845-2.306 5.151-5.151 5.151h-22.245c-2.845 0-5.151-2.306-5.151-5.151v-22.245c0-2.845 2.306-5.151 5.151-5.151h22.245c2.844 0 5.151 2.306 5.151 5.151zm20.603-5.151h22.245c2.845 0 5.151 2.306 5.151 5.151v22.245c0 2.845-2.306 5.151-5.151 5.151h-22.245c-2.845 0-5.151-2.306-5.151-5.151v-22.245c0-2.845 2.307-5.151 5.151-5.151zm22.246-15.453h-22.245c-2.845 0-5.151-2.306-5.151-5.151v-22.245c0-2.845 2.306-5.151 5.151-5.151h22.245c2.845 0 5.151 2.306 5.151 5.151v22.245c0 2.845-2.307 5.151-5.151 5.151zm-27.397-53.151v-22.245c0-2.845 2.306-5.151 5.151-5.151h22.245c2.845 0 5.151 2.306 5.151 5.151v22.245c0 2.845-2.306 5.151-5.151 5.151h-22.245c-2.844 0-5.151-2.306-5.151-5.151zm-63.452-22.245v22.245c0 2.845-2.306 5.151-5.151 5.151h-22.245c-2.845 0-5.151-2.306-5.151-5.151v-22.245c0-2.845 2.306-5.151 5.151-5.151h22.245c2.844 0 5.151 2.306 5.151 5.151zm-27.397 90.849h22.245c2.845 0 5.151 2.306 5.151 5.151v22.245c0 2.845-2.306 5.151-5.151 5.151h-22.245c-2.845 0-5.151-2.306-5.151-5.151v-22.245c0-2.845 2.307-5.151 5.151-5.151zm138.849 27.396v-70.245c0-2.845 2.306-5.151 5.151-5.151h22.245c2.845 0 5.151 2.306 5.151 5.151v70.245c0 2.845-2.306 5.151-5.151 5.151h-22.245c-2.844 0-5.151-2.306-5.151-5.151z" fill="#0078c8"/><path d="m179.314 326.685c-22.65-8.007-35.3-13.948-43.661-20.506-5.67-4.447-8.137-12.814-6.437-21.836 1.562-8.29 7.281-18.368 18.644-21.791 23.338-7.028 38.406 6.064 39.123 6.703 3.137 2.86 8 2.653 10.883-.472 2.893-3.137 2.696-8.025-.441-10.918-.644-.594-12.077-10.895-30.724-12.607v-14.357c0-4.267-3.459-7.726-7.726-7.726s-7.726 3.459-7.726 7.726v14.999c-2.534.436-5.15 1.045-7.845 1.857-15.051 4.534-26.307 17.457-29.372 33.725-2.773 14.712 1.858 28.835 12.085 36.857 9.78 7.67 23.699 14.309 48.047 22.916 19.004 6.717 23.516 22.547 21.402 35.122-2.506 14.908-15.042 31.019-36.642 31.162-16.726.112-23.884-.702-38.48-10.249-3.571-2.337-8.359-1.335-10.695 2.236s-1.335 8.359 2.236 10.695c15.312 10.017 24.968 12.331 39.264 12.714v15.967c0 4.267 3.459 7.726 7.726 7.726s7.726-3.459 7.726-7.726v-16.46c25.821-3.604 40.869-24.262 44.103-43.503 3.964-23.58-8.397-44.091-31.49-52.254z" fill="#fff"/></g><g/><g/><g/><g/><g/><g/><g/><g/><g/><g/><g/><g/><g/><g/><g/></svg>