<svg width="210" height="20" fill="none" xmlns="http://www.w3.org/2000/svg"><path fill="#FABC00" d="M100 0h10v10h-10zM0 0h10v10H0zm120 0h10v10h-10zM20 0h10v10H20zm120 0h10v10h-10zM40 0h10v10H40zm120 0h10v10h-10zM60 0h10v10H60zm120 0h10v10h-10zM80 0h10v10H80zm120 0h10v10h-10z"/><path fill="#FABC00" d="M100 0h10v10h-10z"/><path fill="#222" d="M190 10h10v10h-10zM90 10h10v10H90zm80 0h10v10h-10zM70 10h10v10H70zm80 0h10v10h-10zM50 10h10v10H50zm80 0h10v10h-10zM30 10h10v10H30zm80 0h10v10h-10zM10 10h10v10H10z"/></svg>