<svg width="21" height="20" fill="none" xmlns="http://www.w3.org/2000/svg"><path d="M4.444 20h11.112A4.445 4.445 0 0020 15.556v-5.39a1.111 1.111 0 00-2.222 0v5.39a2.222 2.222 0 01-2.222 2.222H4.444a2.222 2.222 0 01-2.222-2.222V4.444a2.222 2.222 0 012.222-2.222H10A1.111 1.111 0 0010 0H4.444A4.444 4.444 0 000 4.444v11.112A4.445 4.445 0 004.444 20z" fill="#FABC00"/><path d="M19.058 1.32l-9.39 9.047L5.942 6.77a1.16 1.16 0 00-.805-.32c-.301 0-.59.115-.804.32a1.059 1.059 0 000 1.548l4.531 4.36a1.172 1.172 0 001.608 0l10.195-9.81c.213-.205.333-.483.333-.774 0-.29-.12-.568-.333-.773A1.16 1.16 0 0019.863 1a1.16 1.16 0 00-.805.32z" fill="#FABC00"/></svg>