<svg width="14" height="14" fill="none" xmlns="http://www.w3.org/2000/svg"><path d="M12.195 1.094h-1.258V.437a.438.438 0 00-.874 0v.657H3.936V.437a.438.438 0 00-.874 0v.657H1.804C.81 1.094 0 1.904 0 2.898v9.297C0 13.19.81 14 1.805 14h10.39C13.19 14 14 13.19 14 12.195V2.898c0-.995-.81-1.804-1.805-1.804zm-10.39.875h1.258v.437a.437.437 0 10.874 0V1.97h6.126v.437a.438.438 0 00.874 0V1.97h1.258a.93.93 0 01.93.93v1.038H.875V2.899a.93.93 0 01.93-.93zm10.39 11.156H1.805a.93.93 0 01-.93-.93V4.812h12.25v7.383a.93.93 0 01-.93.93z" fill="#777"/></svg>