<svg width="100" height="1343" fill="none" xmlns="http://www.w3.org/2000/svg"><path d="M0 0h100v891.143L0 1001.43V0z" fill="#FABC00"/><path d="M100 1343H0v-322.27l100-108.644V1343z" fill="#EEE"/><path d="M50 350v50H0v-50zm0-200v50H0v-50zm0 400v50H0v-50zm0 200v50H0v-50zm0-700v50H0V50zm0 400v50H0v-50zm0-200v50H0v-50zm0 400v50H0v-50zm0 200v50H0v-50zm50-550v50H50v-50zm0-200v50H50v-50zm0 400v50H50v-50zm0 200v50H50v-50zm0-700v50H50V0zm0 400v50H50v-50zm0-200v50H50v-50zm0 400v50H50v-50zm0 200v50H50v-50z" opacity=".15" fill="#fff"/></svg>