<svg width="1410" height="20" fill="none" xmlns="http://www.w3.org/2000/svg"><path fill="#FABC00" d="M1300 0h10v10h-10zm-100 0h10v10h-10zm120 0h10v10h-10zm-100 0h10v10h-10zm120 0h10v10h-10zm-100 0h10v10h-10zm120 0h10v10h-10zm-100 0h10v10h-10zm120 0h10v10h-10zm-100 0h10v10h-10zm120 0h10v10h-10z"/><path fill="#FABC00" d="M1300 0h10v10h-10z"/><path fill="#222" d="M1390 10h10v10h-10zm-100 0h10v10h-10zm80 0h10v10h-10zm-100 0h10v10h-10zm80 0h10v10h-10zm-100 0h10v10h-10zm80 0h10v10h-10zm-100 0h10v10h-10zm80 0h10v10h-10zm-100 0h10v10h-10z"/><path fill="#FABC00" d="M700 0h10v10h-10zM600 0h10v10h-10zm120 0h10v10h-10zM620 0h10v10h-10zm120 0h10v10h-10zM640 0h10v10h-10zm120 0h10v10h-10zM660 0h10v10h-10zm120 0h10v10h-10zM680 0h10v10h-10zm120 0h10v10h-10z"/><path fill="#FABC00" d="M700 0h10v10h-10z"/><path fill="#222" d="M790 10h10v10h-10zm-100 0h10v10h-10zm80 0h10v10h-10zm-100 0h10v10h-10zm80 0h10v10h-10zm-100 0h10v10h-10zm80 0h10v10h-10zm-100 0h10v10h-10zm80 0h10v10h-10zm-100 0h10v10h-10z"/><path fill="#FABC00" d="M1100 0h10v10h-10zm-100 0h10v10h-10zm120 0h10v10h-10zm-100 0h10v10h-10zm120 0h10v10h-10zm-100 0h10v10h-10zm120 0h10v10h-10zm-100 0h10v10h-10zm120 0h10v10h-10zm-100 0h10v10h-10zm120 0h10v10h-10z"/><path fill="#FABC00" d="M1100 0h10v10h-10z"/><path fill="#222" d="M1190 10h10v10h-10zm-100 0h10v10h-10zm80 0h10v10h-10zm-100 0h10v10h-10zm80 0h10v10h-10zm-100 0h10v10h-10zm80 0h10v10h-10zm-100 0h10v10h-10zm80 0h10v10h-10zm-100 0h10v10h-10z"/><path fill="#FABC00" d="M500 0h10v10h-10zM400 0h10v10h-10zm120 0h10v10h-10zM420 0h10v10h-10zm120 0h10v10h-10zM440 0h10v10h-10zm120 0h10v10h-10zM460 0h10v10h-10zm120 0h10v10h-10zM480 0h10v10h-10zm120 0h10v10h-10z"/><path fill="#FABC00" d="M500 0h10v10h-10z"/><path fill="#222" d="M590 10h10v10h-10zm-100 0h10v10h-10zm80 0h10v10h-10zm-100 0h10v10h-10zm80 0h10v10h-10zm-100 0h10v10h-10zm80 0h10v10h-10zm-100 0h10v10h-10zm80 0h10v10h-10zm-100 0h10v10h-10z"/><path fill="#FABC00" d="M900 0h10v10h-10zM800 0h10v10h-10zm120 0h10v10h-10zM820 0h10v10h-10zm120 0h10v10h-10zM840 0h10v10h-10zm120 0h10v10h-10zM860 0h10v10h-10zm120 0h10v10h-10zM880 0h10v10h-10zm120 0h10v10h-10z"/><path fill="#FABC00" d="M900 0h10v10h-10z"/><path fill="#222" d="M990 10h10v10h-10zm-100 0h10v10h-10zm80 0h10v10h-10zm-100 0h10v10h-10zm80 0h10v10h-10zm-100 0h10v10h-10zm80 0h10v10h-10zm-100 0h10v10h-10zm80 0h10v10h-10zm-100 0h10v10h-10z"/><path fill="#FABC00" d="M300 0h10v10h-10zM200 0h10v10h-10zm120 0h10v10h-10zM220 0h10v10h-10zm120 0h10v10h-10zM240 0h10v10h-10zm120 0h10v10h-10zM260 0h10v10h-10zm120 0h10v10h-10zM280 0h10v10h-10zm120 0h10v10h-10z"/><path fill="#FABC00" d="M300 0h10v10h-10z"/><path fill="#222" d="M390 10h10v10h-10zm-100 0h10v10h-10zm80 0h10v10h-10zm-100 0h10v10h-10zm80 0h10v10h-10zm-100 0h10v10h-10zm80 0h10v10h-10zm-100 0h10v10h-10zm80 0h10v10h-10zm-100 0h10v10h-10z"/><path fill="#FABC00" d="M100 0h10v10h-10zM0 0h10v10H0zm120 0h10v10h-10zM20 0h10v10H20zm120 0h10v10h-10zM40 0h10v10H40zm120 0h10v10h-10zM60 0h10v10H60zm120 0h10v10h-10zM80 0h10v10H80zm120 0h10v10h-10z"/><path fill="#FABC00" d="M100 0h10v10h-10z"/><path fill="#222" d="M190 10h10v10h-10zM90 10h10v10H90zm80 0h10v10h-10zM70 10h10v10H70zm80 0h10v10h-10zM50 10h10v10H50zm80 0h10v10h-10zM30 10h10v10H30zm80 0h10v10h-10zM10 10h10v10H10z"/></svg>