<svg id="Capa_1" enable-background="new 0 0 512 512" viewBox="0 0 512 512" xmlns="http://www.w3.org/2000/svg"><g><path d="m403.459 379.584c30.284-47.33 52.876-104.383 52.876-160.573l-12.939-142.178c-60.675-1.263-119.187-23.101-165.894-62.023l-14.907-12.422c-3.82-3.184-9.37-3.184-13.19 0l-14.907 12.423c-48.137 40.113-108.813 62.081-171.472 62.081-8.299 0-15.026 6.727-15.026 15.026v123.566c0 122.556 71.259 233.927 182.535 285.286l.882.407 47.196-5.126c51.017-23.547 94.562-69.136 124.846-116.467z" fill="#c8effe"/><path d="m448.974 76.892c-1.861 0-3.72-.02-5.578-.059v138.65c0 56.189-16.007 110.907-46.291 158.237-30.284 47.331-73.258 84.794-124.275 108.341l-41.414 19.114 22.425 10.35c1.369.632 2.947.632 4.317 0l23.307-10.757c111.276-51.357 182.535-162.729 182.535-285.285v-123.565c0-8.299-6.727-15.026-15.026-15.026z" fill="#99e6fc"/><path d="m367.107 352c25.333-39.594 39.657-105.092 39.657-152.094l-11.367-83.314c-49.897-8.616-97.312-29.154-137.844-60.021-.919-.7-2.185-.7-3.104 0-45.464 34.624-99.588 56.25-156.161 62.634-1.302.147-2.287 1.24-2.287 2.55v90.027c0 50.946 14.514 100.557 41.971 143.472 23.514 36.75 55.467 66.94 93.214 88.262 52.125-18.376 106.432-45.429 135.921-91.516z" fill="#9be69d"/><path d="m157.99 340.177 16.524-16.34c3.771-3.771 4.218-3.624 9.547-3.837 4.595-.183 5.627 1.997 9.363 4.643 29.32 20.769 67.336 29.265 67.013 20.491 56.617-.524 106.922-55.009 107.404-111.627.573-67.521-59.449-143.829-168.566-107.154-37.273 20.162-62.853 59.485-63.27 104.511-.243 26.244 7.94 50.565 22.007 70.423 1.453 2.051 1.228 4.845-.55 6.622l-9.33 9.33z" fill="#3c87d0"/><path d="m254.957 112.005c-20.091.171-39.05 5.352-55.682 14.348 98.921-19.015 161.842 39.038 161.269 106.559-.482 56.618-46.935 103.107-103.551 103.631-.529-.08-32.028 1.604-61.348-19.165-3.736-2.646-8.17-3.964-12.765-3.78-5.329.212-10.334 2.63-14.105 6.401l-5.3 5.3c-2.012 2.012-5.273 2.012-7.285 0l-8.058-8.059-28.756 28.756 22.628 22.627 38.085-38.085c1.777-1.777 4.571-2.003 6.622-.55 19.858 14.067 44.18 22.25 70.424 22.007 65.117-.603 118.306-53.835 118.859-118.952.572-67.101-53.937-121.609-121.037-121.038z" fill="#0078c8"/><path d="m413.713 119.205c-6.137-.692-12.245-1.565-18.317-2.613v95.19c0 47.002-13.39 92.774-38.723 132.368-29.488 46.087-73.362 80.991-125.488 99.366 11.837 6.687 22.819 11.517 22.719 11.471 1.33.614 2.862.614 4.191 0 3.213-2.063 69.243-26.762 115.933-99.733 27.458-42.915 41.972-92.527 41.972-143.472v-90.027c0-1.31-.985-2.403-2.287-2.55z" fill="#6fd7a3"/><path d="m85.283 423.346 65.638-81.464-15.73-15.73c-2.012-2.012-5.273-2.012-7.284 0l-61.997 61.996z" fill="#ffe177"/><circle cx="256" cy="232" fill="#6fd7a3" r="88"/><path d="m248.594 229.604-16.999-16.999c-1.992-1.992-5.222-1.992-7.214 0l-15.195 15.195c-1.992 1.992-1.992 5.222 0 7.214l33.997 33.997c3.984 3.984 10.444 3.984 14.429 0l45.202-45.202c1.992-1.992 1.992-5.222 0-7.214l-15.195-15.195c-1.992-1.992-5.222-1.992-7.214 0l-28.203 28.203c-.997.997-2.612.997-3.608.001z" fill="#fff"/><path d="m150.921 341.882-61.996 61.997c-2.012 2.012-5.273 2.012-7.284 0l-15.73-15.73-10.927 10.927c-2.012 2.012-2.012 5.273 0 7.285l26.657 26.657c2.012 2.012 5.273 2.012 7.285 0l72.923-72.923c2.012-2.012 2.012-5.273 0-7.284z" fill="#ffc344"/></g><g/><g/><g/><g/><g/><g/><g/><g/><g/><g/><g/><g/><g/><g/><g/></svg>